# xmcd
#
# Track frame offsets: 
#        150
#        18595
#        32632
#        53834
#        67242
#        77303
#        99417
#        124831
#        137169
#        152995
#
# Disc length: 2378 seconds
#
# Revision: 0
# Processed by: cddbd v1.5.2PL0 Copyright (c) Steve Scherf et al.
# Submitted via: ExactAudioCopy v0.99pb5
#
DISCID=8209480a
DTITLE=The Luv Brothers - The Luv Brothers
DYEAR=2009
DGENRE=Acoustic
TTITLE0=Walk This World
TTITLE1=Like to Have Our Fun
TTITLE2=Run to the Hills
TTITLE3=I've Traveled Over
TTITLE4=Kind of Funny
TTITLE5=Tell Me Lies
TTITLE6=Crazyman
TTITLE7=Eastbound and Down
TTITLE8=Blue as the Sky
TTITLE9=A Luv Song
EXTD=
EXTT0=
EXTT1=
EXTT2=
EXTT3=
EXTT4=
EXTT5=
EXTT6=
EXTT7=
EXTT8=
EXTT9=
PLAYORDER=
